<svg t="1583233759971" class="icon" viewBox="0 0 1024 1024" version="1.1" xmlns="http://www.w3.org/2000/svg" p-id="2197" width="200" height="200"><path d="M512 853.333333a341.333333 341.333333 0 1 0 0-682.666666 341.333333 341.333333 0 0 0 0 682.666666z m0 85.333334A426.666667 426.666667 0 1 1 512 85.333333a426.666667 426.666667 0 0 1 0 853.333334z" fill="#4b9d0b" p-id="2198"></path><path d="M652.458667 396.544a42.666667 42.666667 0 1 1 60.416 60.245333L489.045333 681.386667a42.666667 42.666667 0 0 1-58.368 1.962666L313.258667 580.437333a42.666667 42.666667 0 0 1 56.149333-64.170666l87.466667 76.544 195.584-196.266667z" fill="#4b9d0b" p-id="2199"></path></svg>
