<svg xmlns="http://www.w3.org/2000/svg" width="20" height="17" viewBox="0 0 20 17">
    <path fill="#98C1D9" fill-rule="nonzero" d="M17.826 17H2.174C.973 17 0 15.999 0 14.763V4.473c0-.246.194-.447.435-.447h1.304V1.79C1.74.801 2.518 0 3.48 0h4.347c.96 0 1.74.801 1.74 1.79v.447h10c.24 0 .434.2.434.447v12.08C20 15.998 19.027 17 17.826 17zM.87 4.921v9.842c0 .741.584 1.342 1.304 1.342h13.923a2.261 2.261 0 0 1-.445-1.342V4.921H.87zm18.26-1.79H8.696V1.79a.883.883 0 0 0-.87-.894H3.478c-.48 0-.87.4-.87.894v2.237h13.479c.12 0 .23.051.309.134a.451.451 0 0 1 .126.314v10.29c0 .74.584 1.341 1.304 1.341.72 0 1.304-.6 1.304-1.342V3.132z"/>
</svg>
