<svg xmlns="http://www.w3.org/2000/svg" width="29" height="27" viewBox="0 0 29 27">
    <g fill="none" fill-rule="evenodd" transform="translate(1 1)">
        <path fill="#2E92FF" stroke="#FFF" stroke-width=".2" d="M25 8.333h-1.282V5.77c0-.707-.575-1.282-1.282-1.282h-8.333a.643.643 0 0 1-.41-.148l-3.669-3.057h-7.46c-.707 0-1.282.575-1.282 1.282v4.487H25v1.282H0V2.564A2.567 2.567 0 0 1 2.564 0h7.692c.15 0 .295.053.41.148l3.669 3.057h8.1A2.567 2.567 0 0 1 25 5.77v2.564z"/>
        <rect width="27" height="19" y="6" fill="#E0EEFD" stroke="#4DA1FF" rx="2"/>
        <g fill="#278CFD" stroke="#278CFD" stroke-width=".4" opacity=".74">
            <path d="M8.625 15.557l6.644 2.829.753-6.31-7.397 3.481zm6.8 3.268a.198.198 0 0 1-.076-.015l-7.238-3.082a.178.178 0 0 1-.111-.16.177.177 0 0 1 .104-.162l8.06-3.793a.195.195 0 0 1 .19.014c.056.037.086.1.078.165l-.82 6.876a.177.177 0 0 1-.094.134.193.193 0 0 1-.092.023z"/>
            <path d="M11.511 19.935a.202.202 0 0 1-.05-.006.18.18 0 0 1-.136-.173l.023-2.844c0-.042.017-.083.046-.115l4.71-5.141a.194.194 0 0 1 .263-.017.172.172 0 0 1 .018.25l-4.664 5.092-.018 2.136 1.03-1.605a.192.192 0 0 1 .256-.06c.088.052.116.161.062.245l-1.38 2.153a.19.19 0 0 1-.16.085"/>
        </g>
    </g>
</svg>
