<svg xmlns="http://www.w3.org/2000/svg" width="65" height="77" viewBox="0 0 65 77">
    <g fill="#FF6D4A" fill-rule="evenodd">
        <path stroke="#FFF" stroke-width="1.8" d="M60.727 23.826h-18a1.633 1.633 0 0 1-1.636-1.63V5.163c0-.498.401-.902.894-.902H6.727c-.901 0-1.636.73-1.636 1.63V35.24H1.818V5.891C1.818 3.195 4.021 1 6.728 1h36c.433 0 .85.171 1.156.478l19.637 19.565c.307.305.479.719.479 1.153v48.913C64 73.805 61.797 76 59.09 76H6.728c-2.706 0-4.909-2.195-4.909-4.891V56.804h3.273V71.11c0 .9.735 1.63 1.636 1.63h52.364c.902 0 1.636-.73 1.636-1.63V23.826zM44.364 6.566v14h14.05l-14.05-14z" opacity=".8"/>
        <path fill-opacity=".1" stroke="#FFF" stroke-width="1.8" d="M51.556 58.065H2.444c-.797 0-1.444-.729-1.444-1.63V35.239c0-.901.647-1.63 1.444-1.63h49.112c.797 0 1.444.728 1.444 1.63v21.196c0 .901-.647 1.63-1.444 1.63z"/>
        <text font-family=".AppleSystemUIFont" font-size="8" letter-spacing=".073" transform="translate(1 1)">
            <tspan x="15" y="48">.PDF</tspan>
        </text>
    </g>
</svg>
